<svg width="49" height="48" viewBox="0 0 49 48" fill="none" xmlns="http://www.w3.org/2000/svg">
<mask id="mask0_269_13517" style="mask-type:alpha" maskUnits="userSpaceOnUse" x="0" y="0" width="49" height="48">
<rect width="48" height="48" transform="translate(0.333984)" fill="url(#paint0_linear_269_13517)"/>
</mask>
<g mask="url(#mask0_269_13517)">
<circle cx="24.334" cy="24" r="23.5" fill="#F9F5FF" stroke="#74E3C8"/>
</g>
<rect x="8.33398" y="8" width="32" height="32" rx="16" fill="#00AE84"/>
<path d="M26.8333 28.1667V31.5H21.8333V28.1667M18.6667 28.1667H30C30.9334 28.1667 31.4001 28.1667 31.7567 27.985C32.0703 27.8252 32.3252 27.5703 32.485 27.2567C32.6667 26.9001 32.6667 26.4334 32.6667 25.5V19.1667C32.6667 18.2332 32.6667 17.7665 32.485 17.41C32.3252 17.0964 32.0703 16.8414 31.7567 16.6817C31.4001 16.5 30.9334 16.5 30 16.5H18.6667C17.7332 16.5 17.2665 16.5 16.91 16.6817C16.5964 16.8414 16.3414 17.0964 16.1817 17.41C16 17.7665 16 18.2332 16 19.1667V25.5C16 26.4334 16 26.9001 16.1817 27.2567C16.3414 27.5703 16.5964 27.8252 16.91 27.985C17.2665 28.1667 17.7332 28.1667 18.6667 28.1667Z" stroke="white" stroke-width="1.336" stroke-linecap="round" stroke-linejoin="round"/>
<defs>
<linearGradient id="paint0_linear_269_13517" x1="24" y1="0" x2="24" y2="48" gradientUnits="userSpaceOnUse">
<stop/>
<stop offset="1" stop-opacity="0"/>
</linearGradient>
</defs>
</svg>
