<svg width="43" height="43" viewBox="0 0 43 43" fill="none" xmlns="http://www.w3.org/2000/svg">
<g filter="url(#filter0_d_1734_16966)">
<path fill-rule="evenodd" clip-rule="evenodd" d="M4.3125 17.0208C4.3125 7.62049 11.933 0 21.3333 0C30.7337 0 38.3542 7.62049 38.3542 17.0208C38.3542 26.4212 30.7337 34.0417 21.3333 34.0417C11.933 34.0417 4.3125 26.4212 4.3125 17.0208ZM14.2869 25.8869C14.8113 26.2808 15.5557 26.175 15.9496 25.6506C17.1792 24.0135 19.1329 22.9583 21.3334 22.9583C23.5339 22.9583 25.4876 24.0135 26.7172 25.6506C27.1111 26.175 27.8555 26.2808 28.3799 25.8869C28.9043 25.4931 29.0101 24.7487 28.6163 24.2243C26.9574 22.0157 24.3125 20.5833 21.3334 20.5833C18.3543 20.5833 15.7094 22.0157 14.0506 24.2243C13.6567 24.7487 13.7625 25.4931 14.2869 25.8869ZM15 10.2917C13.9069 10.2917 13.0208 11.1778 13.0208 12.2708C13.0208 13.3639 13.9069 14.25 15 14.25H15.0142C16.1073 14.25 16.9934 13.3639 16.9934 12.2708C16.9934 11.1778 16.1073 10.2917 15.0142 10.2917H15ZM27.6525 10.2917C26.5594 10.2917 25.6733 11.1778 25.6733 12.2708C25.6733 13.3639 26.5594 14.25 27.6525 14.25H27.6667C28.7597 14.25 29.6458 13.3639 29.6458 12.2708C29.6458 11.1778 28.7597 10.2917 27.6667 10.2917H27.6525Z" fill="#FF3B30"/>
</g>
<defs>
<filter id="filter0_d_1734_16966" x="0.3125" y="0" width="42.042" height="42.0417" filterUnits="userSpaceOnUse" color-interpolation-filters="sRGB">
<feFlood flood-opacity="0" result="BackgroundImageFix"/>
<feColorMatrix in="SourceAlpha" type="matrix" values="0 0 0 0 0 0 0 0 0 0 0 0 0 0 0 0 0 0 127 0" result="hardAlpha"/>
<feOffset dy="4"/>
<feGaussianBlur stdDeviation="2"/>
<feComposite in2="hardAlpha" operator="out"/>
<feColorMatrix type="matrix" values="0 0 0 0 1 0 0 0 0 0.453188 0 0 0 0 0.4225 0 0 0 0.25 0"/>
<feBlend mode="normal" in2="BackgroundImageFix" result="effect1_dropShadow_1734_16966"/>
<feBlend mode="normal" in="SourceGraphic" in2="effect1_dropShadow_1734_16966" result="shape"/>
</filter>
</defs>
</svg>
