<svg width="300" height="56" viewBox="0 0 300 56" fill="none" xmlns="http://www.w3.org/2000/svg">
<mask id="mask0_882_18440" style="mask-type:alpha" maskUnits="userSpaceOnUse" x="1" y="0" width="298" height="56">
<rect width="298" height="56" transform="translate(1)" fill="url(#paint0_linear_882_18440)"/>
</mask>
<g mask="url(#mask0_882_18440)">
<path opacity="0.1" d="M267.092 45.3366L298.052 46.9506C298.583 46.9783 299 47.4172 299 47.9492V55.5C299 56.0523 298.552 56.5 298 56.5H2C1.44772 56.5 1 56.0523 1 55.5V10C1 9.44772 1.44772 9 2 9H11.5497C11.6117 9 11.6735 8.99424 11.7344 8.9828L43.3411 3.04329C43.4926 3.01482 43.6486 3.02177 43.797 3.0636L75.4126 11.9754C75.4708 11.9918 75.5303 12.0028 75.5904 12.0085L107.353 14.9929C107.403 14.9976 107.453 15.0062 107.502 15.0185L139.191 22.9584C139.301 22.9859 139.415 22.9946 139.528 22.984L171.161 20.0117C171.244 20.0039 171.327 20.0065 171.409 20.0194L203.073 24.9779C203.167 24.9926 203.258 25.0205 203.344 25.0608L235.018 39.9414C235.101 39.9803 235.189 40.0076 235.279 40.0227L267.092 45.3366Z" fill="#F97066"/>
</g>
<path d="M299 47L267.092 45.3366L235.279 40.0227C235.189 40.0076 235.101 39.9803 235.018 39.9414L203.344 25.0608C203.258 25.0205 203.167 24.9926 203.073 24.9779L171.409 20.0194C171.327 20.0065 171.244 20.0039 171.161 20.0117L139.528 22.984C139.415 22.9946 139.301 22.9859 139.191 22.9584L107.502 15.0185C107.453 15.0062 107.403 14.9976 107.353 14.9929L75.5904 12.0085C75.5303 12.0028 75.4708 11.9918 75.4126 11.9754L43.797 3.0636C43.6486 3.02177 43.4926 3.01482 43.3411 3.04329L11.7344 8.9828C11.6735 8.99424 11.6117 9 11.5497 9H1" stroke="#F97066" stroke-width="2" stroke-linecap="round" stroke-linejoin="round"/>
<g opacity="0.2">
<rect x="184.96" y="15" width="17.25" height="17.25" rx="8.625" stroke="#F97066" stroke-width="2"/>
</g>
<rect x="189.335" y="19.375" width="8.5" height="8.5" rx="4.25" fill="#0C0E12"/>
<rect x="189.335" y="19.375" width="8.5" height="8.5" rx="4.25" stroke="#F97066" stroke-width="2"/>
<defs>
<linearGradient id="paint0_linear_882_18440" x1="149" y1="0" x2="149" y2="56" gradientUnits="userSpaceOnUse">
<stop/>
<stop offset="1" stop-opacity="0"/>
</linearGradient>
</defs>
</svg>
