<svg width="115" height="58" viewBox="0 0 115 58" fill="none" xmlns="http://www.w3.org/2000/svg">
<mask id="mask0_835_68864" style="mask-type:alpha" maskUnits="userSpaceOnUse" x="1" y="1" width="113" height="56">
<rect width="112" height="56" transform="translate(1.66699 1)" fill="url(#paint0_linear_835_68864)"/>
</mask>
<g mask="url(#mask0_835_68864)">
<path opacity="0.1" d="M5.6973 50.2414L1.66699 57H113.667V1L112.076 10.6552H109.955C109.389 12.2644 108.215 15.4828 108.046 15.4828C107.876 15.4828 106.773 17.4138 106.243 18.3793L101.682 21.2759L99.0306 25.1379L94.7882 21.2759L92.5609 18.3793L89.3791 25.1379H86.0912L83.3337 18.3793C82.273 17.4138 80.1094 15.4828 79.9397 15.4828C79.77 15.4828 78.3842 13.5517 77.7124 12.5862H76.0155L71.9852 15.4828L68.4852 18.3793L66.8943 25.1379L62.1215 28.0345L59.6821 30.931L56.9246 35.7586L54.2731 42.0948H53.1064L49.9246 42.6983L46.8488 35.7586L44.1973 30.931H42.6064L39.8488 28.0345L35.9246 30.931H32.2124L28.5003 35.7586L24.7882 41.5517L22.0306 47.3448L19.0609 50.2414L15.0306 47.3448L11.8488 50.2414L8.66699 53.1379L5.6973 50.2414Z" fill="#079455"/>
</g>
<path d="M1.66699 57L5.6973 50.2414L8.66699 53.1379L11.8488 50.2414L15.0306 47.3448L19.0609 50.2414L22.0306 47.3448L24.7882 41.5517L28.5003 35.7586L32.2124 30.931H35.9246L39.8488 28.0345L42.6064 30.931H44.1973L46.8488 35.7586L49.9246 42.6983L53.1064 42.0948H54.2731L56.9246 35.7586L59.6821 30.931L62.1215 28.0345L66.8943 25.1379L68.4852 18.3793L71.9852 15.4828L76.0155 12.5862H77.7125C78.3842 13.5517 79.77 15.4828 79.9397 15.4828C80.1094 15.4828 82.273 17.4138 83.3337 18.3793L86.0912 25.1379H89.3791L92.5609 18.3793L94.7882 21.2759L99.0306 25.1379L101.682 21.2759L106.243 18.3793C106.773 17.4138 107.876 15.4828 108.046 15.4828C108.215 15.4828 109.389 12.2644 109.955 10.6552H112.076L113.667 1" stroke="#00AE84" stroke-width="2" stroke-linecap="round" stroke-linejoin="round"/>
<defs>
<linearGradient id="paint0_linear_835_68864" x1="56" y1="0" x2="56" y2="56" gradientUnits="userSpaceOnUse">
<stop/>
<stop offset="1" stop-opacity="0"/>
</linearGradient>
</defs>
</svg>
