<svg width="300" height="56" viewBox="0 0 300 56" fill="none" xmlns="http://www.w3.org/2000/svg">
<mask id="mask0_882_18414" style="mask-type:alpha" maskUnits="userSpaceOnUse" x="1" y="0" width="298" height="56">
<rect width="298" height="56" transform="translate(1)" fill="url(#paint0_linear_882_18414)"/>
</mask>
<g mask="url(#mask0_882_18414)">
<path opacity="0.1" d="M32.9081 45.3366L1.94794 46.9506C1.41661 46.9783 1 47.4172 1 47.9492V55.5C1 56.0523 1.44771 56.5 1.99999 56.5H298C298.552 56.5 299 56.0523 299 55.5V10C299 9.44772 298.552 9 298 9H288.45C288.388 9 288.327 8.99424 288.266 8.9828L256.659 3.04329C256.507 3.01482 256.351 3.02177 256.203 3.0636L224.587 11.9754C224.529 11.9918 224.47 12.0028 224.41 12.0085L192.647 14.9929C192.597 14.9976 192.547 15.0062 192.498 15.0185L160.809 22.9584C160.699 22.9859 160.585 22.9946 160.472 22.984L128.839 20.0117C128.756 20.0039 128.673 20.0065 128.591 20.0194L96.9269 24.9779C96.8333 24.9926 96.7422 25.0205 96.6564 25.0608L64.9818 39.9414C64.8991 39.9803 64.8114 40.0076 64.7213 40.0227L32.9081 45.3366Z" fill="url(#paint1_linear_882_18414)"/>
</g>
<path d="M1 47L32.9081 45.3366L64.7213 40.0227C64.8114 40.0076 64.8991 39.9803 64.9818 39.9414L96.6564 25.0608C96.7422 25.0205 96.8332 24.9926 96.9269 24.9779L128.591 20.0194C128.673 20.0065 128.756 20.0039 128.839 20.0117L160.472 22.984C160.585 22.9946 160.699 22.9859 160.809 22.9584L192.498 15.0185C192.547 15.0062 192.597 14.9976 192.647 14.9929L224.41 12.0085C224.47 12.0028 224.529 11.9918 224.587 11.9754L256.203 3.0636C256.351 3.02177 256.507 3.01482 256.659 3.04329L288.266 8.9828C288.327 8.99424 288.388 9 288.45 9H299" stroke="url(#paint2_linear_882_18414)" stroke-width="2" stroke-linecap="round" stroke-linejoin="round"/>
<g opacity="0.2">
<rect x="184.96" y="6" width="17.25" height="17.25" rx="8.625" stroke="#47CD89" stroke-width="2"/>
</g>
<rect x="189.335" y="10.375" width="8.5" height="8.5" rx="4.25" fill="#0C0E12"/>
<rect x="189.335" y="10.375" width="8.5" height="8.5" rx="4.25" stroke="#47CD89" stroke-width="2"/>
<defs>
<linearGradient id="paint0_linear_882_18414" x1="149" y1="0" x2="149" y2="56" gradientUnits="userSpaceOnUse">
<stop/>
<stop offset="1" stop-opacity="0"/>
</linearGradient>
<linearGradient id="paint1_linear_882_18414" x1="299" y1="29.4684" x2="0.999992" y2="29.4683" gradientUnits="userSpaceOnUse">
<stop stop-color="#36F097"/>
<stop offset="1" stop-color="#36F097" stop-opacity="0.2"/>
</linearGradient>
<linearGradient id="paint2_linear_882_18414" x1="299" y1="24.7684" x2="0.999992" y2="24.7683" gradientUnits="userSpaceOnUse">
<stop stop-color="#36F097"/>
<stop offset="1" stop-color="#36F097" stop-opacity="0.2"/>
</linearGradient>
</defs>
</svg>
