<svg xmlns="http://www.w3.org/2000/svg" width="16" height="16" viewBox="0 0 16 16" fill="none">
  <g clip-path="url(#clip0_463_517)">
    <path d="M1.91671 12.0771C1.94734 11.8014 1.96265 11.6636 2.00436 11.5347C2.04136 11.4205 2.09364 11.3117 2.15977 11.2114C2.23432 11.0983 2.33238 11.0003 2.5285 10.8042L11.3327 1.99998C12.0691 1.2636 13.263 1.2636 13.9994 1.99998C14.7357 2.73636 14.7357 3.93027 13.9994 4.66665L5.19517 13.4708C4.99905 13.6669 4.90099 13.765 4.78794 13.8396C4.68765 13.9057 4.57888 13.958 4.46458 13.995C4.33575 14.0367 4.19792 14.052 3.92226 14.0826L1.66602 14.3333L1.91671 12.0771Z" stroke="#A4A7AE" stroke-width="1.5" stroke-linecap="round" stroke-linejoin="round"/>
  </g>
  <defs>
    <clipPath id="clip0_463_517">
      <rect width="16" height="16" fill="white"/>
    </clipPath>
  </defs>
</svg>