<svg width="35" height="35" viewBox="0 0 35 35" fill="none" xmlns="http://www.w3.org/2000/svg">
<path fill-rule="evenodd" clip-rule="evenodd" d="M0.646484 17.0208C0.646484 7.62049 8.26697 0 17.6673 0C27.0677 0 34.6881 7.62049 34.6881 17.0208C34.6881 26.4212 27.0677 34.0417 17.6673 34.0417C8.26697 34.0417 0.646484 26.4212 0.646484 17.0208ZM10.6209 20.8213C11.1453 20.4274 11.8897 20.5333 12.2836 21.0577C13.5131 22.6948 15.4669 23.75 17.6674 23.75C19.8679 23.75 21.8216 22.6948 23.0512 21.0577C23.4451 20.5333 24.1895 20.4274 24.7139 20.8213C25.2383 21.2151 25.3441 21.9595 24.9502 22.4839C23.2914 24.6926 20.6465 26.125 17.6674 26.125C14.6883 26.125 12.0434 24.6926 10.3845 22.4839C9.99068 21.9595 10.0965 21.2151 10.6209 20.8213ZM11.334 10.2917C10.2409 10.2917 9.35482 11.1778 9.35482 12.2708C9.35482 13.3639 10.2409 14.25 11.334 14.25H11.3482C12.4413 14.25 13.3274 13.3639 13.3274 12.2708C13.3274 11.1778 12.4413 10.2917 11.3482 10.2917H11.334ZM23.9864 10.2917C22.8934 10.2917 22.0073 11.1778 22.0073 12.2708C22.0073 13.3639 22.8934 14.25 23.9864 14.25H24.0007C25.0937 14.25 25.9798 13.3639 25.9798 12.2708C25.9798 11.1778 25.0937 10.2917 24.0007 10.2917H23.9864Z" fill="#34C759"/>
</svg>
