<svg width="180" height="61" viewBox="0 0 180 61" fill="none" xmlns="http://www.w3.org/2000/svg">
<g clip-path="url(#clip0_1668_19773)">
<path d="M25.252 41.2741L47.0962 19.6229L52.0587 24.5461L55.0362 3.87866L34.1844 6.82982L39.1516 11.7531L17.3073 33.4043C13.2807 37.3954 7.7227 38.9412 2.50977 38.0465C3.83309 42.1079 6.11109 45.9257 9.3674 49.1485C12.619 52.3714 16.4755 54.6339 20.5684 55.9455C19.6657 50.774 21.2253 45.2698 25.252 41.2788" fill="white"/>
<mask id="mask0_1668_19773" style="mask-type:luminance" maskUnits="userSpaceOnUse" x="1" y="1" width="57" height="57">
<path d="M55.3947 25.0193L54.4401 31.6336L49.6761 26.9118L47.0956 24.3541L27.6334 43.6444C24.5425 46.7079 23.1388 51.0972 23.8855 55.3834L24.1407 56.8496C32.9125 58.4423 42.2939 55.88 49.0759 49.1579C56.7606 41.5411 59.0528 30.6124 55.9713 21.0094L55.3947 25.0239V25.0193ZM9.36208 9.78566C2.58006 16.5031 -0.000412107 25.8062 1.60175 34.5005L3.08104 34.7534C7.40546 35.4935 11.8291 34.107 14.9248 31.0434L34.387 11.7531L31.8066 9.19543L27.0426 4.47358L33.7159 3.52733L37.7662 2.95584C34.9872 2.07986 32.1043 1.63953 29.2166 1.63953C22.0329 1.63953 14.8491 4.35178 9.36681 9.78566" fill="white"/>
</mask>
<g mask="url(#mask0_1668_19773)">
<path d="M59.0579 1.63483H0V58.4283H59.0579V1.63483Z" fill="white"/>
</g>
<path d="M100.799 13.669L100.78 32.4393H81.0342V21.7824C81.0342 21.7824 80.4907 21.773 82.8396 21.773V21.7824C83.0003 21.7824 85.8076 21.7824 85.9636 21.7824C89.8343 21.8058 92.4148 22.1852 93.998 24.3166C93.998 17.3135 91.2758 13.6597 87.0175 13.6597L83.5249 13.6878H80.5096C75.6039 13.6878 72.8154 17.6601 72.8154 22.6021V42.3656H108.649V22.5834C108.649 17.6414 105.695 13.669 100.789 13.669" fill="white"/>
<path d="M119.812 13.8002V6.64244C119.812 2.59045 116.319 -0.00469971 109.547 -0.00469971C111.343 1.30693 111.839 2.68413 111.952 5.39639L111.929 42.3562H119.817L119.798 13.7814L119.812 13.7955V13.8002Z" fill="white"/>
<path d="M172.31 17.4165H163.132H157.362C157.366 14.2545 159.191 13.8892 161.521 13.847H168.038C172.296 13.847 175.018 10.2353 175.018 3.23688C173.558 5.20432 172.022 5.66339 168.818 5.74302H156.837C151.931 5.74302 149.143 9.71538 149.143 14.6574V25.5205H158.132L166.474 25.5252C170.703 25.5252 171.781 26.7244 171.781 31.1417V32.444H144.974V22.6068C144.974 17.6648 142.186 13.6924 137.28 13.6924L132.143 13.6784L130.059 13.6643C125.8 13.6643 123.078 17.3228 123.078 24.3213C124.713 22.1196 127.407 21.7917 131.476 21.7823V21.7917H131.453C135.683 21.7917 136.76 22.9909 136.76 27.4083V32.4393H123.078V42.3655H179.99V26.3309C179.99 21.3889 177.202 17.4165 172.296 17.4165" fill="white"/>
<path d="M79.8955 49.9823H78.402L73.9595 54.1186V49.9823H72.8252V61H73.9595V55.8659L78.8321 61H80.3114L74.555 54.9244L79.8955 49.9823ZM97.5193 61H98.63V49.9823H97.5193V61ZM122.804 50.3805C122.053 50.1135 120.848 49.9823 119.184 49.9823H116.878V61H120.413C121.798 61 122.875 60.7986 123.641 60.4004C124.406 60.0022 125.035 59.3839 125.512 58.5407C125.994 57.7022 126.235 56.7325 126.235 55.627C126.235 54.3482 125.933 53.2473 125.323 52.3245C124.718 51.4017 123.872 50.7506 122.795 50.3758M124.402 58.2175C123.924 58.9201 123.267 59.4026 122.431 59.6743C121.835 59.8617 120.772 59.9601 119.236 59.9601H117.95V51.0644H118.735C120.332 51.0644 121.476 51.1675 122.171 51.3783C123.097 51.6593 123.82 52.1746 124.34 52.9288C124.86 53.683 125.12 54.5918 125.12 55.6504C125.12 56.7091 124.879 57.5195 124.402 58.2222M148.373 49.9823L143.122 61H144.36L146.09 57.3743H150.878L152.626 61H153.827L148.642 49.9823H148.368H148.373ZM146.6 56.3109L148.505 52.3245L150.4 56.3109H146.6ZM178.908 49.9823V58.4283L171.512 49.9823H171.271V61H172.419V52.6571L179.754 61H180.005V49.9823H178.908Z" fill="white"/>
<path d="M95.5962 4.81086C95.5962 7.4669 93.4222 9.62172 90.7424 9.62172C88.0627 9.62172 85.8887 7.4669 85.8887 4.81086C85.8887 2.15482 88.0627 0 90.7424 0C93.4222 0 95.5962 2.15482 95.5962 4.81086Z" fill="white"/>
</g>
<defs>
<clipPath id="clip0_1668_19773">
<rect width="180" height="61" fill="white"/>
</clipPath>
</defs>
</svg>
