<svg width="22" height="24" viewBox="0 0 22 24" fill="none" xmlns="http://www.w3.org/2000/svg">
<path d="M16.8327 9.66667V7.33333C16.8327 4.11167 14.221 1.5 10.9993 1.5C7.77769 1.5 5.16602 4.11167 5.16602 7.33333V9.66667M10.9993 14.9167V17.25M7.26602 22.5H14.7327C16.6929 22.5 17.673 22.5 18.4217 22.1185C19.0802 21.783 19.6156 21.2475 19.9512 20.589C20.3327 19.8403 20.3327 18.8602 20.3327 16.9V15.2667C20.3327 13.3065 20.3327 12.3264 19.9512 11.5777C19.6156 10.9191 19.0802 10.3837 18.4217 10.0481C17.673 9.66667 16.6929 9.66667 14.7327 9.66667H7.26602C5.30583 9.66667 4.32574 9.66667 3.57705 10.0481C2.91848 10.3837 2.38305 10.9191 2.04749 11.5777C1.66602 12.3264 1.66602 13.3065 1.66602 15.2667V16.9C1.66602 18.8602 1.66602 19.8403 2.04749 20.589C2.38305 21.2475 2.91848 21.783 3.57705 22.1185C4.32574 22.5 5.30583 22.5 7.26602 22.5Z" stroke="#414651" stroke-width="2" stroke-linecap="round" stroke-linejoin="round"/>
</svg>
