<svg width="600" height="56" viewBox="0 0 600 56" fill="none" xmlns="http://www.w3.org/2000/svg">
<mask id="mask0_882_18440" style="mask-type:alpha" maskUnits="userSpaceOnUse" x="2" y="0" width="596" height="56">
<rect width="596" height="56" transform="translate(2)" fill="url(#paint0_linear_882_18440)"/>
</mask>
<g mask="url(#mask0_882_18440)">
<path opacity="0.1" d="M534.184 45.3366L596.104 46.9506C596.583 46.9783 597 47.4172 597 47.9492V55.5C597 56.0523 596.552 56.5 596 56.5H4C3.44772 56.5 3 56.0523 3 55.5V10C3 9.44772 3.44772 9 4 9H23.0994C23.2234 9 23.347 8.99424 23.4688 8.9828L86.6822 3.04329C86.9852 3.01482 87.2972 3.02177 87.594 3.0636L150.825 11.9754C150.942 11.9918 151.061 12.0028 151.181 12.0085L214.706 14.9929C214.806 14.9976 214.906 15.0062 215.004 15.0185L278.382 22.9584C278.602 22.9859 278.83 22.9946 279.056 22.984L342.322 20.0117C342.488 20.0039 342.654 20.0065 342.818 20.0194L406.146 24.9779C406.334 24.9926 406.516 25.0205 406.688 25.0608L470.036 39.9414C470.202 39.9803 470.378 40.0076 470.558 40.0227L534.184 45.3366Z" fill="#F97066"/>
</g>
<path d="M598 47L534.184 45.3366L470.558 40.0227C470.378 40.0076 470.202 39.9803 470.036 39.9414L406.688 25.0608C406.516 25.0205 406.334 24.9926 406.146 24.9779L342.818 20.0194C342.654 20.0065 342.488 20.0039 342.322 20.0117L279.056 22.984C278.83 22.9946 278.602 22.9859 278.382 22.9584L215.004 15.0185C214.906 15.0062 214.806 14.9976 214.706 14.9929L151.181 12.0085C151.061 12.0028 150.942 11.9918 150.825 11.9754L87.594 3.0636C87.2972 3.02177 86.9852 3.01482 86.6822 3.04329L23.4688 8.9828C23.347 8.99424 23.2234 9 23.0994 9H3" stroke="#F97066" stroke-width="2" stroke-linecap="round" stroke-linejoin="round"/>
<g opacity="0.2">
<rect x="369.92" y="15" width="34.5" height="17.25" rx="17.25" stroke="#F97066" stroke-width="2"/>
</g>
<rect x="378.67" y="19.375" width="17" height="8.5" rx="8.5" fill="#0C0E12"/>
<rect x="378.67" y="19.375" width="17" height="8.5" rx="8.5" stroke="#F97066" stroke-width="2"/>
<defs>
<linearGradient id="paint0_linear_882_18440" x1="298" y1="0" x2="298" y2="56" gradientUnits="userSpaceOnUse">
<stop/>
<stop offset="1" stop-opacity="0"/>
</linearGradient>
</defs>
</svg>