<svg width="563" height="51" viewBox="0 0 563 51" fill="none" xmlns="http://www.w3.org/2000/svg">
<mask id="mask0_882_18440" style="mask-type:alpha" maskUnits="userSpaceOnUse" x="1" y="0" width="561" height="50">
<rect width="560" height="49" transform="translate(1.66211 0.644775)" fill="url(#paint0_linear_882_18440)"/>
</mask>
<g mask="url(#mask0_882_18440)">
<path opacity="0.1" d="M501.7 40.3226L560.8 41.7565C561.28 41.7681 561.662 42.16 561.662 42.6393V49.2032C561.662 49.6909 561.267 50.0863 560.779 50.0863H2.54521C2.05749 50.0863 1.66211 49.6909 1.66211 49.2032V9.42489C1.66211 8.93717 2.05749 8.5418 2.54521 8.5418H21.6621L81.566 3.30248C81.6299 3.29689 81.6942 3.29828 81.7578 3.30662L141.662 11.1657L201.662 13.7895L261.592 20.7783C261.639 20.7838 261.686 20.7855 261.733 20.7834L321.662 18.1626L381.599 22.5312C381.641 22.5342 381.683 22.5402 381.724 22.5492L441.662 35.6551L501.7 40.3226Z" fill="#F97066"/>
</g>
<path d="M561.662 41.6969L501.7 40.2451L441.662 35.5874L381.724 22.5089C381.683 22.5 381.641 22.494 381.599 22.4909L321.662 18.1315L261.733 20.7468C261.686 20.7489 261.639 20.7472 261.592 20.7417L201.662 13.7676L141.662 11.1492L81.7576 3.30657C81.6941 3.29826 81.6299 3.29687 81.5662 3.30244L21.6621 8.53082H1.66211" stroke="#F97066" stroke-width="1.7662" stroke-linecap="round" stroke-linejoin="round"/>
<g opacity="0.2">
<rect x="355.086" y="13.8913" width="15.2334" height="15.2334" rx="7.61672" stroke="#F97066" stroke-width="1.7662"/>
</g>
<rect x="358.95" y="17.7548" width="7.50633" height="7.50633" rx="3.75317" fill="#0C0E12"/>
<rect x="358.95" y="17.7548" width="7.50633" height="7.50633" rx="3.75317" stroke="#F97066" stroke-width="1.7662"/>
<defs>
<linearGradient id="paint0_linear_882_18440" x1="280" y1="0" x2="280" y2="49" gradientUnits="userSpaceOnUse">
<stop/>
<stop offset="1" stop-opacity="0"/>
</linearGradient>
</defs>
</svg>
