<svg width="28" height="28" viewBox="0 0 28 28" fill="none" xmlns="http://www.w3.org/2000/svg">
<path d="M2.33398 8.16675L11.8597 14.8348C12.6311 15.3747 13.0168 15.6447 13.4363 15.7493C13.8069 15.8416 14.1944 15.8416 14.565 15.7493C14.9845 15.6447 15.3702 15.3747 16.1416 14.8348L25.6673 8.16675M7.93398 23.3334H20.0673C22.0275 23.3334 23.0076 23.3334 23.7563 22.9519C24.4149 22.6164 24.9503 22.081 25.2858 21.4224C25.6673 20.6737 25.6673 19.6936 25.6673 17.7334V10.2667C25.6673 8.30656 25.6673 7.32647 25.2858 6.57778C24.9503 5.91921 24.4149 5.38378 23.7563 5.04823C23.0076 4.66675 22.0275 4.66675 20.0673 4.66675H7.93398C5.9738 4.66675 4.99371 4.66675 4.24502 5.04823C3.58645 5.38378 3.05102 5.91921 2.71546 6.57778C2.33398 7.32647 2.33398 8.30656 2.33398 10.2667V17.7334C2.33398 19.6936 2.33398 20.6737 2.71546 21.4224C3.05102 22.081 3.58645 22.6164 4.24502 22.9519C4.99371 23.3334 5.9738 23.3334 7.93398 23.3334Z" stroke="#414651" stroke-width="2" stroke-linecap="round" stroke-linejoin="round"/>
</svg>