<svg width="36" height="35" viewBox="0 0 36 35" fill="none" xmlns="http://www.w3.org/2000/svg">
<path fill-rule="evenodd" clip-rule="evenodd" d="M0.979492 17.0208C0.979492 7.62049 8.59998 0 18.0003 0C27.4007 0 35.0212 7.62049 35.0212 17.0208C35.0212 26.4212 27.4007 34.0417 18.0003 34.0417C8.59998 34.0417 0.979492 26.4212 0.979492 17.0208ZM9.68783 12.2708C9.68783 11.1778 10.5739 10.2917 11.667 10.2917H11.6812C12.7743 10.2917 13.6604 11.1778 13.6604 12.2708C13.6604 13.3639 12.7743 14.25 11.6812 14.25H11.667C10.5739 14.25 9.68783 13.3639 9.68783 12.2708ZM22.3403 12.2708C22.3403 11.1778 23.2264 10.2917 24.3195 10.2917H24.3337C25.4267 10.2917 26.3128 11.1778 26.3128 12.2708C26.3128 13.3639 25.4267 14.25 24.3337 14.25H24.3195C23.2264 14.25 22.3403 13.3639 22.3403 12.2708ZM13.2503 22.1667C12.5945 22.1667 12.0628 22.6983 12.0628 23.3542C12.0628 24.01 12.5945 24.5417 13.2503 24.5417H22.7503C23.4062 24.5417 23.9378 24.01 23.9378 23.3542C23.9378 22.6983 23.4062 22.1667 22.7503 22.1667H13.2503Z" fill="#FFCC00"/>
</svg>
