<svg width="51" height="51" viewBox="0 0 51 51" fill="none" xmlns="http://www.w3.org/2000/svg">
<path d="M9.78687 8.23229C10.9304 3.96456 15.3171 1.4319 19.5848 2.57544L42.767 8.78709C47.0348 9.93063 49.5674 14.3173 48.4239 18.5851L42.2122 41.7673C41.0687 46.035 36.682 48.5677 32.4143 47.4241L9.23207 41.2125C4.96434 40.0689 2.43168 35.6822 3.57521 31.4145L9.78687 8.23229Z" fill="url(#paint0_linear_835_74394)"/>
<g filter="url(#filter0_b_835_74394)">
<path d="M0 23.8C0 19.3196 0 17.0794 0.871948 15.3681C1.63893 13.8628 2.86278 12.6389 4.36808 11.8719C6.07937 11 8.31958 11 12.8 11H27.2C31.6804 11 33.9206 11 35.6319 11.8719C37.1372 12.6389 38.3611 13.8628 39.1281 15.3681C40 17.0794 40 19.3196 40 23.8V38.2C40 42.6804 40 44.9206 39.1281 46.6319C38.3611 48.1372 37.1372 49.3611 35.6319 50.1281C33.9206 51 31.6804 51 27.2 51H12.8C8.31958 51 6.07937 51 4.36808 50.1281C2.86278 49.3611 1.63893 48.1372 0.871948 46.6319C0 44.9206 0 42.6804 0 38.2V23.8Z" fill="white" fill-opacity="0.6"/>
<path d="M0.5 23.8C0.5 21.5515 0.500389 19.8953 0.607333 18.5863C0.7138 17.2832 0.923378 16.3685 1.31745 15.5951C2.0365 14.1839 3.18386 13.0365 4.59507 12.3175C5.36848 11.9234 6.28324 11.7138 7.58633 11.6073C8.89526 11.5004 10.5515 11.5 12.8 11.5H27.2C29.4485 11.5 31.1047 11.5004 32.4137 11.6073C33.7168 11.7138 34.6315 11.9234 35.4049 12.3175C36.8161 13.0365 37.9635 14.1839 38.6825 15.5951C39.0766 16.3685 39.2862 17.2832 39.3927 18.5863C39.4996 19.8953 39.5 21.5515 39.5 23.8V38.2C39.5 40.4485 39.4996 42.1047 39.3927 43.4137C39.2862 44.7168 39.0766 45.6315 38.6825 46.4049C37.9635 47.8161 36.8161 48.9635 35.4049 49.6825C34.6315 50.0766 33.7168 50.2862 32.4137 50.3927C31.1047 50.4996 29.4485 50.5 27.2 50.5H12.8C10.5515 50.5 8.89526 50.4996 7.58633 50.3927C6.28324 50.2862 5.36848 50.0766 4.59507 49.6825C3.18386 48.9635 2.0365 47.8161 1.31745 46.4049C0.923378 45.6315 0.7138 44.7168 0.607333 43.4137C0.500389 42.1047 0.5 40.4485 0.5 38.2V23.8Z" stroke="white" stroke-opacity="0.6"/>
<g clip-path="url(#clip0_835_74394)">
<path d="M14.167 30.9998C14.167 27.7782 16.7787 25.1665 20.0003 25.1665M23.7502 27.2498L20.0002 30.9998M28.3337 30.9998C28.3337 35.6022 24.6027 39.3332 20.0003 39.3332C15.398 39.3332 11.667 35.6022 11.667 30.9998C11.667 26.3975 15.398 22.6665 20.0003 22.6665C24.6027 22.6665 28.3337 26.3975 28.3337 30.9998ZM20.8337 30.9998C20.8337 31.4601 20.4606 31.8332 20.0003 31.8332C19.5401 31.8332 19.167 31.4601 19.167 30.9998C19.167 30.5396 19.5401 30.1665 20.0003 30.1665C20.4606 30.1665 20.8337 30.5396 20.8337 30.9998Z" stroke="white" stroke-width="1.66667" stroke-linecap="round" stroke-linejoin="round"/>
</g>
</g>
<defs>
<filter id="filter0_b_835_74394" x="-16" y="-5" width="72" height="72" filterUnits="userSpaceOnUse" color-interpolation-filters="sRGB">
<feFlood flood-opacity="0" result="BackgroundImageFix"/>
<feGaussianBlur in="BackgroundImageFix" stdDeviation="8"/>
<feComposite in2="SourceAlpha" operator="in" result="effect1_backgroundBlur_835_74394"/>
<feBlend mode="normal" in="SourceGraphic" in2="effect1_backgroundBlur_835_74394" result="shape"/>
</filter>
<linearGradient id="paint0_linear_835_74394" x1="45.3726" y1="29.9728" x2="6.73553" y2="19.62" gradientUnits="userSpaceOnUse">
<stop stop-color="#36F097"/>
<stop offset="1" stop-color="#36F097" stop-opacity="0.2"/>
</linearGradient>
<clipPath id="clip0_835_74394">
<rect width="20" height="20" fill="white" transform="translate(10 21)"/>
</clipPath>
</defs>
</svg>
