<svg width="12" height="14" viewBox="0 0 12 14" fill="none" xmlns="http://www.w3.org/2000/svg">
<path d="M7.57814 11.6121C7.39205 12.0767 7.27037 12.5818 7.22266 13.1112L11.1449 12.1658C11.331 11.7012 11.4527 11.1962 11.5004 10.6667L7.57814 11.6121Z" fill="url(#paint0_linear_1738_17172)"/>
<path d="M11.1236 9.84237C11.3206 9.39857 11.4495 8.91606 11.5 8.41034L8.26366 9.11216V7.76011L11.1236 7.13827C11.3206 6.69447 11.4495 6.21197 11.5 5.70624L8.26366 6.40806V1.54946C7.76849 1.83329 7.32637 2.21258 6.97014 2.65897V6.68931L5.67662 6.97056V0.888916C5.18144 1.17274 4.73932 1.55204 4.3831 1.99842V7.2518L1.48783 7.88138C1.29077 8.32519 1.16192 8.80769 1.11139 9.31342L4.3831 8.60385V10.3068L0.876436 11.068C0.679376 11.5118 0.550528 11.9943 0.5 12.5L4.17088 11.7027C4.46899 11.6382 4.72669 11.4576 4.89343 11.2099L5.56546 10.1907C5.6362 10.0849 5.67662 9.95848 5.67662 9.82173V8.32261L6.97014 8.04136V10.7429L11.1236 9.83979V9.84237Z" fill="url(#paint1_linear_1738_17172)"/>
<defs>
<linearGradient id="paint0_linear_1738_17172" x1="7.22266" y1="11.889" x2="11.5004" y2="11.889" gradientUnits="userSpaceOnUse">
<stop stop-color="#FBE947"/>
<stop offset="1" stop-color="#58D764"/>
</linearGradient>
<linearGradient id="paint1_linear_1738_17172" x1="0.5" y1="6.69447" x2="11.5" y2="6.69447" gradientUnits="userSpaceOnUse">
<stop stop-color="#FBE947"/>
<stop offset="1" stop-color="#58D764"/>
</linearGradient>
</defs>
</svg>
