<svg width="40" height="40" viewBox="0 0 40 40" fill="none" xmlns="http://www.w3.org/2000/svg">
<g filter="url(#filter0_ii_1657_16220)">
<path d="M0.5 8C0.5 3.85786 3.85786 0.5 8 0.5H32C36.1421 0.5 39.5 3.85786 39.5 8V32C39.5 36.1421 36.1421 39.5 32 39.5H8C3.85786 39.5 0.5 36.1421 0.5 32V8Z" stroke="#00AE84"/>
<path d="M21.8815 27.8469C21.577 28.6072 21.3779 29.4337 21.2998 30.3L27.7181 28.753C28.0226 27.9928 28.2217 27.1663 28.2998 26.3L21.8815 27.8469Z" fill="#00AE84"/>
<path d="M27.6838 24.9511C28.0063 24.2249 28.2171 23.4353 28.2998 22.6078L23.004 23.7562V21.5438L27.6838 20.5262C28.0063 19.8 28.2171 19.0104 28.2998 18.1829L23.004 19.3313V11.3809C22.1937 11.8453 21.4702 12.466 20.8873 13.1964V19.7915L18.7706 20.2518V10.3C17.9603 10.7644 17.2369 11.3851 16.654 12.1155V20.712L11.9162 21.7422C11.5938 22.4684 11.3829 23.258 11.3003 24.0855L16.654 22.9244V25.7111L10.9158 26.9567C10.5933 27.6829 10.3825 28.4724 10.2998 29.3L16.3067 27.9953C16.7945 27.8898 17.2162 27.5942 17.4891 27.1889L18.5887 25.5211C18.7045 25.348 18.7706 25.1411 18.7706 24.9173V22.4642L20.8873 22.004V26.4247L27.6838 24.9469V24.9511Z" fill="#00AE84"/>
</g>
<defs>
<filter id="filter0_ii_1657_16220" x="0" y="0" width="40" height="40" filterUnits="userSpaceOnUse" color-interpolation-filters="sRGB">
<feFlood flood-opacity="0" result="BackgroundImageFix"/>
<feBlend mode="normal" in="SourceGraphic" in2="BackgroundImageFix" result="shape"/>
<feColorMatrix in="SourceAlpha" type="matrix" values="0 0 0 0 0 0 0 0 0 0 0 0 0 0 0 0 0 0 127 0" result="hardAlpha"/>
<feOffset dy="-2"/>
<feComposite in2="hardAlpha" operator="arithmetic" k2="-1" k3="1"/>
<feColorMatrix type="matrix" values="0 0 0 0 0.0470588 0 0 0 0 0.054902 0 0 0 0 0.0705882 0 0 0 0.05 0"/>
<feBlend mode="normal" in2="shape" result="effect1_innerShadow_1657_16220"/>
<feColorMatrix in="SourceAlpha" type="matrix" values="0 0 0 0 0 0 0 0 0 0 0 0 0 0 0 0 0 0 127 0" result="hardAlpha"/>
<feMorphology radius="1" operator="erode" in="SourceAlpha" result="effect2_innerShadow_1657_16220"/>
<feOffset/>
<feComposite in2="hardAlpha" operator="arithmetic" k2="-1" k3="1"/>
<feColorMatrix type="matrix" values="0 0 0 0 0.0470588 0 0 0 0 0.054902 0 0 0 0 0.0705882 0 0 0 0.18 0"/>
<feBlend mode="normal" in2="effect1_innerShadow_1657_16220" result="effect2_innerShadow_1657_16220"/>
</filter>
</defs>
</svg>
