<svg width="238" height="81" viewBox="0 0 238 81" fill="none" xmlns="http://www.w3.org/2000/svg">
<g clip-path="url(#clip0_69_1468)">
<path d="M33.3886 54.8066L62.2716 26.0566L68.833 32.5941L72.7699 5.15039L45.1993 9.06914L51.767 15.6066L22.884 44.3566C17.5599 49.6562 10.211 51.7089 3.31836 50.5208C5.06808 55.9138 8.08011 60.9833 12.3857 65.2628C16.685 69.5423 21.7842 72.5467 27.1958 74.2884C26.0023 67.4212 28.0645 60.1125 33.3886 54.8128" fill="#00AE84"/>
<mask id="mask0_69_1468" style="mask-type:luminance" maskUnits="userSpaceOnUse" x="1" y="2" width="75" height="75">
<path d="M73.2445 33.2224L71.9822 42.0053L65.6832 35.7353L62.2712 32.3391L36.5378 57.954C32.4509 62.0221 30.5949 67.8504 31.5823 73.542L31.9197 75.4889C43.5179 77.6038 55.9222 74.2013 64.8895 65.2753C75.0504 55.1612 78.0812 40.6493 74.0069 27.8978L73.2445 33.2286V33.2224ZM12.3791 12.9941C3.41173 21.914 -0.000230193 34.2674 2.11819 45.8121L4.07413 46.148C9.79198 47.1308 15.6411 45.2896 19.7342 41.2216L45.4676 15.6066L42.0556 12.2104L35.7566 5.94037L44.5802 4.68388L49.9357 3.92501C46.2612 2.76183 42.4493 2.17712 38.6312 2.17712C29.1327 2.17712 19.6342 5.77864 12.3853 12.9941" fill="white"/>
</mask>
<g mask="url(#mask0_69_1468)">
<path d="M78.0877 2.1709H0V77.5851H78.0877V2.1709Z" fill="url(#paint0_radial_69_1468)"/>
</g>
<path d="M133.28 18.1506L133.255 43.0751H107.146V28.9241C107.146 28.9241 106.428 28.9116 109.533 28.9116V28.9241C109.746 28.9241 113.458 28.9241 113.664 28.9241C118.782 28.9552 122.194 29.459 124.287 32.2892C124.287 22.99 120.688 18.1382 115.058 18.1382L110.44 18.1755H106.453C99.9662 18.1755 96.2793 23.4503 96.2793 30.0126V56.2558H143.659V29.9877C143.659 23.4254 139.754 18.1506 133.267 18.1506" fill="#286456"/>
<path d="M158.419 18.3248V8.8203C158.419 3.43979 153.801 -0.00622559 144.846 -0.00622559C147.22 1.73544 147.876 3.56419 148.026 7.16571L147.995 56.2434H158.425L158.4 18.2999L158.419 18.3186V18.3248Z" fill="#286456"/>
<path d="M227.832 23.1269H215.697H208.067C208.073 18.9282 210.485 18.4431 213.566 18.3871H222.183C227.814 18.3871 231.413 13.5913 231.413 4.29822C229.482 6.91072 227.451 7.5203 223.214 7.62605H207.373C200.887 7.62605 197.2 12.9008 197.2 19.4632V33.8879H209.085L220.115 33.8941C225.708 33.8941 227.132 35.4865 227.132 41.3522V43.0814H191.688V30.0189C191.688 23.4566 188.001 18.1818 181.515 18.1818L174.722 18.1631L171.966 18.1445C166.336 18.1445 162.736 23.0025 162.736 32.2955C164.898 29.372 168.46 28.9366 173.841 28.9242V28.9366H173.81C179.402 28.9366 180.827 30.529 180.827 36.3947V43.0752H162.736V56.2559H237.987V34.964C237.987 28.4017 234.3 23.1269 227.814 23.1269" fill="#286456"/>
<path d="M105.64 66.37H103.665L97.7908 71.8625V66.37H96.291V81H97.7908V74.1826L104.234 81H106.189L98.5782 72.9324L105.64 66.37ZM128.942 81H130.411V66.37H128.942V81ZM162.374 66.8987C161.381 66.5442 159.787 66.37 157.588 66.37H154.538V81H159.212C161.043 81 162.468 80.7325 163.48 80.2038C164.493 79.6751 165.324 78.854 165.955 77.7344C166.592 76.621 166.911 75.3334 166.911 73.8654C166.911 72.1673 166.511 70.7055 165.705 69.4801C164.905 68.2547 163.787 67.3901 162.362 66.8925M164.487 77.3052C163.855 78.2382 162.987 78.8789 161.881 79.2397C161.093 79.4885 159.687 79.6191 157.656 79.6191H155.957V67.8069H156.994C159.106 67.8069 160.618 67.9437 161.537 68.2236C162.762 68.5968 163.718 69.2811 164.405 70.2825C165.093 71.284 165.436 72.4907 165.436 73.8965C165.436 75.3023 165.118 76.3784 164.487 77.3114M196.182 66.37L189.239 81H190.876L193.163 76.1855H199.494L201.806 81H203.393L196.538 66.37H196.175H196.182ZM193.838 74.7735L196.357 69.4801L198.862 74.7735H193.838ZM236.556 66.37V77.5851L226.777 66.37H226.458V81H227.977V69.9218L237.675 81H238.006V66.37H236.556Z" fill="#00AE84"/>
<path d="M126.398 6.38819C126.398 9.91507 123.523 12.7764 119.98 12.7764C116.437 12.7764 113.562 9.91507 113.562 6.38819C113.562 2.86131 116.437 0 119.98 0C123.523 0 126.398 2.86131 126.398 6.38819Z" fill="#00AE84"/>
</g>
<defs>
<radialGradient id="paint0_radial_69_1468" cx="0" cy="0" r="1" gradientUnits="userSpaceOnUse" gradientTransform="translate(38.842 39.3609) scale(37.1254 36.9545)">
<stop stop-color="#00AE84"/>
<stop offset="0.43" stop-color="#14866B"/>
<stop offset="0.79" stop-color="#226D5B"/>
<stop offset="1" stop-color="#276456"/>
</radialGradient>
<clipPath id="clip0_69_1468">
<rect width="238" height="81" fill="white"/>
</clipPath>
</defs>
</svg>
