<svg xmlns="http://www.w3.org/2000/svg" viewBox="450 160 280 440">
  <defs>
    <pattern id="circlePattern" x="0" y="0" width="10" height="10" patternUnits="userSpaceOnUse">
      <circle cx="5" cy="5" r="3.5" fill="#61656C"/>
    </pattern>

    <style type="text/css">
      .region {
        fill: url(#circlePattern);
        stroke: #61656C;
        stroke-width: 0.5;
      }
    </style>
  </defs>

  <path class="region" d="m 545.08718,262.60041 1.22,0.53 0.35,2.07 -0.6,-1.32 -1.01,-0.6 0.04,-0.68 z m -8.35,-39.01 0.87,0.69 -0.05,1.6 -1.18,-1.16 -1.01,-0.12 0.21,-0.65 1.16,-0.36 z m -18.37,-29.14 1.75,1.05 4.11,1.08 -1.87,0.05 -0.52,-0.26 -2.37,0.75 -0.45,-0.6 0.45,-0.25 -0.11,-0.49 -1.17,-0.55 -2.13,2.34 0.34,0.57 -0.4,-0.13 -0.22,-0.78 0.55,-1.55 0.7,-0.87 1.34,-0.36 z m 19.57,33.55 0.38,0.99 0.46,-1.63 0.45,0.11 -0.06,2.39 0.79,0.44 1.19,-1.76 -0.36,-0.33 0.38,-1.81 0.25,0.39 0.12,1.06 0.38,-0.61 0.05,1.18 -0.98,0.58 0.08,1.05 -0.63,0.11 1.65,1.52 0.52,1.62 -0.54,4.1 0.45,0.68 -0.36,0.03 -0.1,1.48 -1,1.13 0.19,-0.78 -0.87,-1.22 -0.16,2.24 0.42,0.52 -0.83,2.12 0.19,1.3 -0.75,0.42 -2.62,-5.96 -0.76,-0.54 -0.52,0.32 -1.15,2.79 0.89,1.29 -0.52,0.67 0.04,3.02 0.61,0.16 0.8,-0.92 0.81,0.74 1.37,0.1 0.5,0.75 -0.15,0.79 0.63,0.57 -0.69,0.16 -0.37,1.04 1.28,2.91 1.81,2.68 1.09,0.66 0.7,2.02 0.75,0.4 -0.23,0.88 -0.41,0.18 -0.4,-1.47 -1.42,-0.33 -1,-1.47 -0.55,0.17 -0.47,-0.58 0.68,1.74 1.09,0.76 0.05,0.56 0.51,-0.72 0.22,0.28 0.24,1.8 1.28,1.16 0.67,1.46 1.26,0.44 0.07,1.1 2.04,2.54 0.4,0.04 -0.05,-1.1 -0.68,-0.91 0.66,-0.53 0.62,1.64 3.23,2.49 1.33,4.04 -0.34,2.41 1.25,2.03 -0.41,1.78 0.83,2.56 -0.27,0.88 0.89,0.45 -0.5,-0.65 0.32,-0.82 2.52,3.53 1.05,3.3 0.95,0.04 0.54,0.69 1.49,6.53 0.64,-1.84 1.58,-0.3 -0.25,0.48 1.08,2.13 3.69,4.38 4.58,0.8 2.45,-0.96 1.63,-1.8 1.16,0.39 1,-0.33 -0.1,0.51 0.6,0.44 0.76,-0.35 -0.66,1.28 0.13,2.42 1.45,-0.87 0.37,-1.39 1.6,-1.3 -0.09,-0.95 0.89,0.53 0.53,-0.43 0.41,1.64 1.03,-0.58 0.76,0.76 -0.62,0.64 -1.21,0.07 -0.54,0.95 -0.44,-0.16 -0.42,1.48 -3.07,2.44 -0.6,3.09 -0.56,0.13 0.13,1.7 2.24,0.42 0.9,-1.18 2.03,-0.18 1.67,0.66 1.51,2.12 1.63,-0.07 0.75,1.18 -0.51,4.23 34.3,41.63 23.79,4.76 59.71,13.76 7.05,-7.46 15.68,25.98 -22.97,73.24 -103.4,36.4 -39.96,7.94 -57.87,6.31 -32.09,15.68 -20.91,25.6 -4.87,12.21 -1.53,0.93 0,0 2.59,-24.45 7.99,-63.49 0,0 19.5,-152.83 0.02,-7.75 -1.36,-6.9 -2.96,-5.78 -1.67,-2.06 -9.19,-9.15 -9.44,-6.3 -2.29,-1.8 -1.12,-1.79 -0.68,-3.7 -0.34,-7.4 0.63,-15.07 -0.38,-22.62 -0.43,-4.96 -1.09,-2.56 -3.86,-2.08 -8.88,-3.17 -1.46,-2.52 -6.45,-6.08 -1.55,-0.22 -4.41,1.01 -2.35,-0.04 -2.5,-1.19 -9.86,-6.94 -3.01,-0.81 -5.64,-0.11 -2.35,-0.63 -4.06,-3.38 -3.46,-4.22 -5.74,-1.06 -10.41,-6.08 -1.23,-1.53 -1.41,-5.11 -2.12,-2.21 -3.32,-2.32 0,0 -1.47,-1.82 -0.38,-1.53 1.28,-4.67 9.15,-12.15 12.66,-23.67 8.26,-8.72 12.45,-4.39 0,0 5.1,0.13 2.64,-1.27 4.09,-3.16 31.35,4.11 0.87,0.67 3.36,5.38 0.61,2.55 0.22,4.61 3.53,4.7 -0.17,0.7 24.98,-0.43 1.18,1.14 1.28,0.47 -0.04,2.25 0.84,0.66 -0.18,0.34 0.85,0.15 -1.01,3.01 0.97,1.98 1.47,1.03 1.7,2.23 -0.69,0.53 -0.18,2.67 0.39,1 2.05,2.38 3.89,1.05 -0.77,0.92 -0.84,-0.08 0.08,1.05 1.59,1.81 1,0.1 0.05,1.35 2.03,1.26 -0.36,2.1 0.46,0.44 -0.08,0.47 -0.9,0.6 0,-0.89 -0.55,-0.04 0.29,-2 -0.72,1.02 -0.29,-1.41 -1.3,4.4 0.64,0.08 0.45,-1.25 0.35,2.38 0.64,-0.95 0.42,0.68 -0.34,1.18 1.07,-0.31 -0.32,0.58 -0.52,0.11 -0.05,0.82 -0.32,0.69 1.12,0.54 0.75,-1.32 0.63,0.19 -0.57,1.04 0.11,1.29 0.81,-0.41 -0.1,-1.04 1.56,-0.79 0.94,0.37 1.08,1.57 2.59,1.16 3.66,-0.06 1.69,0.83 0.61,1.33 1.12,0.63 0.2,1.82 -0.56,-0.15 0.25,-0.69 -0.36,-0.54 -0.71,1.15 -0.54,-0.61 -0.71,0.71 -0.75,-0.72 -0.74,0.47 -0.31,-0.45 -0.69,0.92 -0.82,-0.34 -0.33,0.73 0.41,-0.21 1.54,0.94 0.56,0.71 1.01,-0.24 -0.03,-1.05 1.36,0.77 -0.61,0.76 -0.73,0.07 0.32,0.92 -0.67,1.23 1.72,-1.09 1.62,0.54 -0.01,3.71 0.67,1.13 0.54,0.02 0.42,-0.06 0.53,-0.23 1.14,0.57 -0.48,1.89 -0.65,-0.23 -0.44,0.41 0.51,0.01 -0.2,0.56 0.76,-0.31 0.53,1.03 0.67,-1.73 0.5,0.35 -0.15,1.06 1.2,-0.66 1.46,0.51 -0.89,-1.68 1.27,-1.31 -1.73,-1.58 -0.68,0.08 0.65,-1.04 -0.21,-0.53 0.74,-0.47 0.46,1.97 1.11,0.06 0.23,1.5 -0.74,0.31 0.97,0.96 0.9,-0.7 0.59,-2.69 0.97,-1.31 -0.99,2.95 -0.44,1.56 -0.63,0.96 0.55,1.96 1.17,1.16 2.4,-1.43 1.07,0.41 -0.03,0.09 -0.49,-0.01 -0.09,0.04 -0.27,0.47 -0.27,-0.47 -2.28,1.16 0.96,1.23 1.49,-0.36 -0.16,0.73 -0.56,0.02 0.02,1.19 0.71,0.03 0.24,0.85 0.13,0.2 2.3,1.81 0.37,0.11 1.21,0.73 1.13,0.37 0.79,0.61 2.98,0.3 2.07,2.21 4.49,5.29 0.49,0.45 0.41,0.4 -0.59,0.09 -1.3,-1.73 -1.68,-0.43 -0.98,0.68 -1.23,-1.95 -0.06,-0.88 -0.47,2.24 0.15,0.95 0.81,0.2 -0.35,1.09 0.31,2.66 0.93,2.33 1.41,1.84 0.1,-1.15 0.31,-0.31 z" title="Ash Sharqīyah"/>
</svg>